<svg preserveAspectRatio="none" width="100%" height="100%" overflow="visible" style="display: block;" viewBox="0 0 1441 11.2132" fill="none" xmlns="http://www.w3.org/2000/svg">
<g id="Vector">
<path d="M0.5 0.606587L51.9286 10.6066L103.357 0.606587L154.786 10.6066L206.214 0.606587L257.643 10.6066L309.071 0.606587L360.5 10.6066L411.929 0.606587L463.357 10.6066L514.786 0.606587L566.214 10.6066L617.643 0.606587L669.071 10.6066L720.5 0.606587L771.929 10.6066L823.357 0.606587L874.786 10.6066L926.214 0.606587L977.643 10.6066L1029.07 0.606587L1080.5 10.6066L1131.93 0.606587L1183.36 10.6066L1234.79 0.606587L1286.21 10.6066L1337.64 0.606587L1389.07 10.6066L1440.5 0.606587V10.6066V10.6066L1389.07 0.606587L1337.64 10.6066L1286.21 0.606587L1234.79 10.6066L1183.36 0.606587L1131.93 10.6066L1080.5 0.606587L1029.07 10.6066L977.643 0.606587L926.214 10.6066L874.786 0.606587L823.357 10.6066L771.929 0.606587L720.5 10.6066L669.071 0.606587L617.643 10.6066L566.214 0.606587L514.786 10.6066L463.357 0.606587L411.929 10.6066L360.5 0.606587L309.071 10.6066L257.643 0.606587L206.214 10.6066L154.786 0.606587L103.357 10.6066L51.9286 0.606587L0.5 10.6066V0.606587Z" fill="var(--fill-0, #C41E1E)"/>
<path d="M1440.5 10.6066V0.606587L1389.07 10.6066L1337.64 0.606587L1286.21 10.6066L1234.79 0.606587L1183.36 10.6066L1131.93 0.606587L1080.5 10.6066L1029.07 0.606587L977.643 10.6066L926.214 0.606587L874.786 10.6066L823.357 0.606587L771.929 10.6066L720.5 0.606587L669.071 10.6066L617.643 0.606587L566.214 10.6066L514.786 0.606587L463.357 10.6066L411.929 0.606587L360.5 10.6066L309.071 0.606587L257.643 10.6066L206.214 0.606587L154.786 10.6066L103.357 0.606587L51.9286 10.6066L0.5 0.606587V10.6066L51.9286 0.606587L103.357 10.6066L154.786 0.606587L206.214 10.6066L257.643 0.606587L309.071 10.6066L360.5 0.606587L411.929 10.6066L463.357 0.606587L514.786 10.6066L566.214 0.606587L617.643 10.6066L669.071 0.606587L720.5 10.6066L771.929 0.606587L823.357 10.6066L874.786 0.606587L926.214 10.6066L977.643 0.606587L1029.07 10.6066L1080.5 0.606587L1131.93 10.6066L1183.36 0.606587L1234.79 10.6066L1286.21 0.606587L1337.64 10.6066L1389.07 0.606587L1440.5 10.6066ZM1440.5 10.6066V10.6066Z" stroke="var(--stroke-0, black)"/>
</g>
</svg>
